# xmcd CD database file
#
# Track frame offsets:
#	150
#	14387
#	36041
#	61119
#	70849
#	87454
#	96326
#	111951
#	117776
#	133596
#	150290
#	158400
#	160268
#
# Disc length: 2421 seconds
#
# Revision: 0
# Processed by: cddbd v1.5.1PL0 Copyright (c) Steve Scherf et al.
# Submitted via: CDex 1.51
#
DISCID=9909730d
DTITLE=Mahavishnu Orchestra - Visions of the Emerald Beyond (Recorded 1974)Digitally remastered 
DYEAR=1991
DGENRE=Jazz
TTITLE0=Mahavishnu Orchestra - Eternity's Breath (Part 1)
TTITLE1=Mahavishnu Orchestra - Eternity's Breath (Part 2)
TTITLE2=Mahavishnu Orchestra - Lila's Dance
TTITLE3=Mahavishnu Orchestra - Can't Stand Your Funk
TTITLE4=Mahavishnu Orchestra - Pastoral
TTITLE5=Mahavishnu Orchestra - Faith
TTITLE6=Mahavishnu Orchestra - Cosmic Strut
TTITLE7=Mahavishnu Orchestra - If I Could See
TTITLE8=Mahavishnu Orchestra - Be Happy
TTITLE9=Mahavishnu Orchestra - Earth Ship
TTITLE10=Mahavishnu Orchestra - Pegasus
TTITLE11=Mahavishnu Orchestra - Opus 1
TTITLE12=Mahavishnu Orchestra - On The Way Home To Earth
EXTD=YEAR: 1991
EXTT0=
EXTT1=
EXTT2=
EXTT3=
EXTT4=
EXTT5=
EXTT6=
EXTT7=
EXTT8=
EXTT9=
EXTT10=
EXTT11=
EXTT12=
PLAYORDER=
